<svg xmlns="http://www.w3.org/2000/svg" width="200" height="200" viewBox="0 0 200 200">
  <!-- 简化的二维码SVG示例 -->
  <rect width="200" height="200" fill="white"/>
  <g fill="#1E293B">
    <!-- 二维码图案 -->
    <rect x="20" y="20" width="20" height="20"/>
    <rect x="40" y="20" width="20" height="20"/>
    <rect x="60" y="20" width="20" height="20"/>
    <rect x="20" y="40" width="20" height="20"/>
    <rect x="60" y="40" width="20" height="20"/>
    <rect x="20" y="60" width="20" height="20"/>
    <rect x="40" y="60" width="20" height="20"/>
    <rect x="60" y="60" width="20" height="20"/>
    
    <rect x="100" y="20" width="20" height="20"/>
    <rect x="120" y="20" width="20" height="20"/>
    <rect x="160" y="20" width="20" height="20"/>
    <rect x="100" y="40" width="20" height="20"/>
    <rect x="140" y="40" width="20" height="20"/>
    <rect x="160" y="40" width="20" height="20"/>
    <rect x="100" y="60" width="20" height="20"/>
    <rect x="120" y="60" width="20" height="20"/>
    <rect x="140" y="60" width="20" height="20"/>
    
    <rect x="20" y="100" width="20" height="20"/>
    <rect x="60" y="100" width="20" height="20"/>
    <rect x="80" y="100" width="20" height="20"/>
    <rect x="20" y="120" width="20" height="20"/>
    <rect x="40" y="120" width="20" height="20"/>
    <rect x="80" y="120" width="20" height="20"/>
    <rect x="20" y="140" width="20" height="20"/>
    <rect x="40" y="140" width="20" height="20"/>
    <rect x="60" y="140" width="20" height="20"/>
    
    <rect x="100" y="100" width="20" height="20"/>
    <rect x="140" y="100" width="20" height="20"/>
    <rect x="160" y="100" width="20" height="20"/>
    <rect x="120" y="120" width="20" height="20"/>
    <rect x="140" y="120" width="20" height="20"/>
    <rect x="100" y="140" width="20" height="20"/>
    <rect x="120" y="140" width="20" height="20"/>
    <rect x="160" y="140" width="20" height="20"/>
    
    <rect x="20" y="160" width="20" height="20"/>
    <rect x="60" y="160" width="20" height="20"/>
    <rect x="80" y="160" width="20" height="20"/>
    <rect x="120" y="160" width="20" height="20"/>
    <rect x="140" y="160" width="20" height="20"/>
    <rect x="160" y="160" width="20" height="20"/>
  </g>
  
  <!-- 中心Logo -->
  <circle cx="100" cy="100" r="25" fill="#3B82F6"/>
  <text x="100" y="105" font-family="Arial" font-size="12" font-weight="bold" text-anchor="middle" fill="white">AEGot</text>
</svg>